<svg width="15" height="15" viewBox="0 0 15 15" fill="none" xmlns="http://www.w3.org/2000/svg">
<mask id="path-1-inside-1_306_3820" fill="white">
<path d="M0 4C0 1.79086 1.79086 0 4 0H11C13.2091 0 15 1.79086 15 4V11C15 13.2091 13.2091 15 11 15H4C1.79086 15 0 13.2091 0 11V4Z"/>
</mask>
<path d="M0 4C0 1.79086 1.79086 0 4 0H11C13.2091 0 15 1.79086 15 4V11C15 13.2091 13.2091 15 11 15H4C1.79086 15 0 13.2091 0 11V4Z" fill="url(#paint0_linear_306_3820)"/>
<path d="M4 10H11V-10H4V10ZM5 4V11H25V4H5ZM11 5H4V25H11V5ZM10 11V4H-10V11H10ZM4 5C7.31371 5 10 7.68629 10 11H-10C-10 18.732 -3.73199 25 4 25V5ZM5 11C5 7.68629 7.68629 5 11 5V25C18.732 25 25 18.732 25 11H5ZM11 10C7.68629 10 5 7.31371 5 4H25C25 -3.73198 18.732 -10 11 -10V10ZM4 -10C-3.73198 -10 -10 -3.73199 -10 4H10C10 7.31371 7.31371 10 4 10V-10Z" fill="#24EE89" mask="url(#path-1-inside-1_306_3820)"/>
<path d="M11.6984 5.70745L7.10999 10.4308C6.80468 10.7451 6.30968 10.7451 6.00433 10.4308L3.30154 7.64856C3.66684 7.20069 4.29084 6.62337 4.62341 6.34081L6.55718 8.28819C6.55718 8.28819 9.55531 5.10139 10.2775 4.35795C10.6534 4.69792 11.3182 5.25874 11.6984 5.70745Z" fill="#222525"/>
<defs>
<linearGradient id="paint0_linear_306_3820" x1="0" y1="7.5" x2="15" y2="7.5" gradientUnits="userSpaceOnUse">
<stop stop-color="#24EE89"/>
<stop offset="1" stop-color="#9FE871"/>
</linearGradient>
</defs>
</svg>
