<svg width="19" height="19" viewBox="0 0 19 19" fill="none" xmlns="http://www.w3.org/2000/svg">
<path fill-rule="evenodd" clip-rule="evenodd" d="M11.1639 12.9047C10.1994 13.6782 8.97506 14.1408 7.64252 14.1408C4.5315 14.1408 2.00952 11.6188 2.00952 8.5078C2.00952 5.3968 4.5315 2.87482 7.64252 2.87482C10.7535 2.87482 13.2755 5.3968 13.2755 8.5078C13.2755 9.85395 12.8033 11.0898 12.0155 12.0588L12.6003 12.6435L11.7515 13.4923L11.1639 12.9047ZM11.4808 8.50772C11.4808 10.6275 9.76229 12.3459 7.64253 12.3459C5.52276 12.3459 3.80433 10.6275 3.80433 8.50772C3.80433 6.38792 5.52276 4.66951 7.64253 4.66951C9.76229 4.66951 11.4808 6.38792 11.4808 8.50772Z" fill="#24EE89"/>
<path fill-rule="evenodd" clip-rule="evenodd" d="M14.8131 16.6547C14.7067 16.7612 14.534 16.7609 14.4278 16.6541L11.6452 13.8542C11.5396 13.7479 11.5398 13.5761 11.6458 13.4701L12.5873 12.5286C12.6938 12.4221 12.8665 12.4224 12.9726 12.5292L15.7552 15.3291C15.8609 15.4354 15.8607 15.6072 15.7547 15.7132L14.8131 16.6547Z" fill="#B3BEC1"/>
<path d="M18.1137 3.78963C17.6328 3.98887 17.2489 4.16818 16.962 4.32758C16.6778 4.48697 16.456 4.64503 16.2966 4.80177C16.1398 4.9585 15.9818 5.17899 15.8224 5.46324C15.663 5.74748 15.481 6.13667 15.2765 6.63078H15.1131C14.9059 6.13667 14.7226 5.74748 14.5632 5.46324C14.4038 5.17899 14.2471 4.9585 14.093 4.80177C13.9336 4.64503 13.7104 4.48697 13.4235 4.32758C13.1393 4.16818 12.7554 3.98887 12.272 3.78963V3.62625C12.7581 3.42701 13.1433 3.24769 13.4276 3.08831C13.7145 2.92891 13.9363 2.77085 14.093 2.61412C14.2471 2.45738 14.4038 2.23689 14.5632 1.95264C14.7226 1.66839 14.9059 1.27921 15.1131 0.785095H15.2765C15.481 1.27921 15.663 1.66839 15.8224 1.95264C15.9818 2.23689 16.1398 2.45738 16.2966 2.61412C16.4506 2.77085 16.6698 2.92891 16.954 3.08831C17.2409 3.24769 17.6275 3.42701 18.1137 3.62625V3.78963Z" fill="#B3BEC1"/>
</svg>
