<svg width="20" height="20" viewBox="0 0 20 20" fill="none" xmlns="http://www.w3.org/2000/svg">
<path d="M13.2125 6.50438C12.3963 5.74813 11.285 5.32751 10.1563 5.34438C8.07251 5.34438 6.31876 6.68876 5.67626 8.52126L3.03688 6.53814C4.39126 3.93314 7.13501 2.28563 10.1563 2.28563C12.1356 2.26876 14.0456 2.97501 15.4869 4.28563L13.2125 6.50438Z" fill="#B3BEC1"/>
<path d="M5.67374 11.4788C5.34374 10.5206 5.34374 9.47876 5.67374 8.52063L3.03437 6.53751C1.90562 8.72251 1.90562 11.2944 3.03437 13.4625C4.38874 16.0675 7.13249 17.715 10.1537 17.715C12.3012 17.715 14.1031 17.0294 15.4219 15.8588L15.4325 15.8669C16.9431 14.505 17.8112 12.5219 17.8112 10.1856C17.8112 9.66438 17.7594 9.12688 17.6725 8.62251H10.1537V11.5975H14.46C14.2862 12.5556 13.7137 13.3956 12.8631 13.9338C12.1512 14.4044 11.2306 14.6731 10.1544 14.6731C8.07062 14.6731 6.31687 13.3119 5.67437 11.4969L3.03874 13.46L5.67374 11.48V11.4788Z" fill="#B3BEC1"/>
</svg>
