<svg width="19" height="19" viewBox="0 0 19 19" fill="none" xmlns="http://www.w3.org/2000/svg">
<path d="M14.2904 3.31311H3.49248C3.29573 3.31311 3.13623 3.47261 3.13623 3.66936V5.0332C3.13623 5.22996 3.29573 5.38945 3.49248 5.38945H14.2904C14.4872 5.38945 14.6467 5.22996 14.6467 5.0332V3.66936C14.6467 3.47261 14.4872 3.31311 14.2904 3.31311Z" fill="#B3BEC1"/>
<path d="M11.4023 8.21155H3.87419C3.67744 8.21155 3.51794 8.37105 3.51794 8.5678V9.93164C3.51794 10.1284 3.67744 10.2879 3.87419 10.2879H11.4023C11.5991 10.2879 11.7586 10.1284 11.7586 9.93164V8.5678C11.7586 8.37105 11.5991 8.21155 11.4023 8.21155Z" fill="#B3BEC1"/>
<path d="M14.2904 13.11H3.49248C3.29573 13.11 3.13623 13.2695 3.13623 13.4662V14.8301C3.13623 15.0268 3.29573 15.1863 3.49248 15.1863H14.2904C14.4872 15.1863 14.6467 15.0268 14.6467 14.8301V13.4662C14.6467 13.2695 14.4872 13.11 14.2904 13.11Z" fill="#B3BEC1"/>
<path d="M16.5044 8.73643C16.5941 8.7887 16.6686 8.86358 16.7203 8.9536C16.772 9.04361 16.7992 9.14561 16.7992 9.24943C16.7992 9.35325 16.772 9.45526 16.7203 9.54527C16.6686 9.63528 16.5941 9.71016 16.5044 9.76243L14.0238 11.2064C13.9335 11.2589 13.8311 11.2867 13.7267 11.287C13.6223 11.2873 13.5197 11.26 13.4292 11.208C13.3387 11.156 13.2635 11.081 13.2112 10.9907C13.1589 10.9004 13.1314 10.7978 13.1313 10.6934V7.80603C13.1313 7.70159 13.1587 7.59898 13.211 7.50856C13.2632 7.41813 13.3384 7.34309 13.4289 7.29099C13.5194 7.2389 13.6221 7.2116 13.7265 7.21185C13.831 7.21211 13.9335 7.2399 14.0238 7.29243L16.5044 8.73643Z" fill="#24EE89"/>
</svg>
