<svg width="21" height="20" viewBox="0 0 21 20" fill="none" xmlns="http://www.w3.org/2000/svg">
<path d="M3.70063 2.83814C3.71438 2.83376 3.73 2.83626 3.74188 2.84501L3.86938 2.94001L8.57938 4.69626C8.58125 4.69251 8.5825 4.68876 8.58563 4.68564C8.59438 4.67314 8.60813 4.66626 8.62375 4.66626H12.7044C12.7188 4.66626 12.7338 4.67376 12.7425 4.68564C12.7444 4.68814 12.7463 4.69126 12.7469 4.69439L17.4438 2.94064L17.5731 2.84501C17.585 2.83626 17.6006 2.83376 17.6144 2.83814C17.6288 2.84251 17.64 2.85376 17.6444 2.86751L18.4125 5.15751C18.415 5.16501 18.415 5.17314 18.4144 5.18126L17.9056 7.61751L18.2031 7.84189C18.2144 7.85064 18.2213 7.86439 18.2213 7.87814C18.2213 7.89189 18.2144 7.90626 18.2031 7.91501L17.7669 8.24751L18.0944 8.50064C18.1056 8.50876 18.1119 8.52126 18.1125 8.53501C18.1131 8.54876 18.1075 8.56189 18.0981 8.57064L17.6563 8.97376L17.9125 9.15814C17.9238 9.16564 17.93 9.17689 17.9313 9.19001C17.9325 9.20314 17.9288 9.21564 17.9206 9.22501L17.2363 10.0206L18.2919 13.2713C18.2969 13.285 18.2944 13.3006 18.2856 13.3125C18.2769 13.3244 18.2625 13.3313 18.2475 13.3313H18.2338L17.2613 16.6263L13.8338 15.6844L13.1694 16.2275L11.815 17.1638H9.5L8.15188 16.2275L7.63625 15.8063L7.4675 15.7263C7.45438 15.7206 7.44625 15.7094 7.4425 15.6963L4.05938 16.6263L3.08 13.285L4.11813 10.0544C4.10938 10.0519 4.10188 10.0469 4.09688 10.04L3.40125 9.22439C3.3925 9.21439 3.38938 9.20189 3.39063 9.18939C3.39125 9.17689 3.39813 9.16501 3.40875 9.15751L3.66563 8.97314L3.22313 8.57001C3.21375 8.56064 3.2075 8.54814 3.20875 8.53439C3.20875 8.52126 3.21563 8.50814 3.22625 8.50001L3.54875 8.24689L3.1125 7.91439C3.10063 7.90564 3.09375 7.89189 3.09438 7.87751C3.09438 7.86314 3.10125 7.84939 3.1125 7.84064L3.415 7.61626L2.9075 5.18001C2.90563 5.17189 2.90688 5.16376 2.90938 5.15626L3.67125 2.86626C3.67563 2.85251 3.68688 2.84126 3.70125 2.83689L3.70063 2.83814ZM7.73313 6.11814L4.03063 3.37251L3.38125 5.32689L3.83188 7.48876C3.835 7.50439 3.82875 7.52001 3.81563 7.52939L3.57188 7.71064L3.955 8.00251C3.965 8.01001 3.97125 8.02189 3.97125 8.03439C3.97125 8.04689 3.96625 8.05876 3.95625 8.06626L3.66813 8.29251L4.05938 8.64876C4.06875 8.65689 4.07313 8.66876 4.0725 8.68126C4.0725 8.69376 4.06563 8.70439 4.05563 8.71189L3.82563 8.87814L4.3925 9.54314L7.145 8.73876L8.50875 7.58626L9.04688 7.11001L7.73375 6.11876L7.73313 6.11814ZM16.9225 9.53876L17.4938 8.87439L17.2638 8.70876C17.2531 8.70189 17.2469 8.69064 17.2463 8.67814C17.2456 8.66564 17.2506 8.65439 17.26 8.64564L17.65 8.29001L17.3581 8.06439C17.3481 8.05689 17.3419 8.04501 17.3431 8.03251C17.3431 8.02001 17.3488 8.00814 17.3594 8.00064L17.7425 7.70876L17.5025 7.52814C17.4906 7.51876 17.4844 7.50314 17.4875 7.48751L17.9375 5.32876L17.2838 3.37689L12.2731 7.09314L13.0119 7.75251L14.1744 8.73501L16.9238 9.53876H16.9225ZM9.75625 12.6375L9.0625 11.1656L7.42875 11.9088C7.4325 11.9163 7.435 11.925 7.435 11.9331L7.43625 11.9544L9.75688 12.6369L9.75625 12.6375ZM9.66 14.4156L9.41813 14.5819C9.42563 14.5919 9.42875 14.605 9.42813 14.6181L9.26438 16.0638L9.36188 15.9706H11.9381L12.1075 16.12L11.93 14.6638C11.9175 14.665 11.9044 14.6619 11.8938 14.655L11.5781 14.4381H9.7025C9.685 14.4381 9.66938 14.4294 9.65938 14.4163L9.66 14.4156ZM13.8669 11.9063L12.2644 11.1775L11.6088 12.55L11.6113 12.5675L13.8669 11.9069V11.9063Z" fill="#B3BEC1"/>
</svg>
