<svg width="19" height="19" viewBox="0 0 19 19" fill="none" xmlns="http://www.w3.org/2000/svg">
<path d="M9.57701 4.04655C9.55801 3.86501 9.55168 3.7067 9.55168 3.62226C9.55168 2.74414 9.78599 1.26864 11.3544 1.26864C12.9227 1.26864 13.1402 2.74414 13.1402 3.62226C13.1402 3.87557 13.079 5.99911 11.5085 6.14054C11.671 6.5205 11.8061 6.92368 11.8821 7.36907C13.6383 7.06299 14.4067 5.26453 14.4067 3.62015C14.4067 1.74992 13.5138 0 11.3544 0C9.19494 0 8.28515 1.73303 8.28515 3.62015C8.28515 3.63493 8.28726 3.65182 8.28726 3.66448C8.75166 3.72781 9.18439 3.85235 9.57701 4.04233V4.04655ZM11.9391 9.16965C11.8926 9.64248 11.8019 10.071 11.6731 10.4636C12.6441 10.4151 13.5708 10.1575 14.3983 9.68681C14.9407 9.957 15.4199 10.3074 15.8315 10.7338C16.0194 10.9259 16.1714 11.1665 16.2854 11.4494L17.1192 13.5117H14.2104C14.4996 13.8706 14.7571 14.2674 14.9386 14.7213L14.9619 14.7761H18.9957L17.4569 10.9723C17.288 10.5565 17.0495 10.1702 16.7392 9.84724C16.0658 9.15487 15.2405 8.61238 14.2737 8.25142C13.6046 8.75592 12.8109 9.06833 11.937 9.16965H11.9391ZM13.0473 14.069C12.3043 13.3027 11.3734 12.7244 10.2757 12.3676L7.66245 14.9788L5.04496 12.3613C3.94097 12.7159 3.00585 13.2985 2.2586 14.0669C1.94619 14.3898 1.70766 14.7761 1.5409 15.1899L0.0020752 18.9958H15.3038L13.7671 15.192C13.5982 14.7761 13.3597 14.3898 13.0494 14.0669L13.0473 14.069ZM1.87864 17.7335L2.71244 15.669C2.82643 15.3862 2.98052 15.1455 3.16417 14.9534C3.61167 14.4933 4.13517 14.1239 4.73044 13.8431L6.76321 15.8759L7.65822 16.7709L8.55324 15.8759L10.5818 13.8495C11.1728 14.1281 11.6942 14.4975 12.1354 14.9534C12.3211 15.1434 12.4752 15.3862 12.5871 15.669L13.4209 17.7335H1.87864ZM7.66033 12.3085C9.80076 12.3085 10.7127 10.299 10.7127 8.49628C10.7127 6.69359 9.81976 4.87612 7.66033 4.87612C5.50091 4.87612 4.59112 6.60915 4.59112 8.49839C4.59112 10.3876 5.48402 12.3106 7.66033 12.3106V12.3085ZM7.66033 6.14054C9.21394 6.14054 9.44614 7.61604 9.44614 8.49417C9.44614 8.7538 9.39758 11.0399 7.66033 11.0399C5.92308 11.0399 5.85765 8.92056 5.85765 8.49417C5.85765 7.61604 6.09195 6.14054 7.66033 6.14054Z" fill="#B3BEC1"/>
</svg>
