<svg width="19" height="19" viewBox="0 0 19 19" fill="none" xmlns="http://www.w3.org/2000/svg">
<path d="M9.68024 2.07326C9.71661 2.20527 9.72739 2.35826 9.74851 2.49563C9.78402 2.72715 9.82546 2.95721 9.87286 3.18579C10.1198 4.35487 10.3955 5.52483 10.7885 6.63943C11.2202 7.86375 11.8499 9.14885 12.7484 9.98198C12.879 10.1031 13.0254 10.2483 13.1792 10.3231C13.121 10.2585 13.053 10.2021 12.9914 10.1415C12.8555 10.008 12.7068 9.84622 12.6024 9.67725C12.6866 9.60897 12.7803 9.55263 12.868 9.49019C13.0145 9.38589 13.1553 9.27201 13.2905 9.14854C13.5507 8.90874 13.7876 8.63335 14.0319 8.37185C14.3862 7.9955 14.7469 7.6279 15.1141 7.26904C15.4388 6.95804 15.7813 6.65166 16.1309 6.38006C16.3736 6.19155 16.6261 6.01969 16.8752 5.84345C17.279 5.55789 17.6931 5.27734 18.1173 5.03518C18.0994 5.0085 18.0818 4.98151 18.0665 4.95257C17.9802 4.78841 17.9486 4.5898 17.9876 4.40149C18.0208 4.24081 18.1057 4.09993 18.2282 4.01667C18.3509 3.93328 18.51 3.91211 18.6459 3.95968C18.7705 4.00328 18.8631 4.10344 18.9224 4.23734C18.9931 4.39694 19.0268 4.64353 18.9747 4.81614C18.9305 4.9627 18.8331 5.09097 18.7134 5.15639C18.5568 5.24184 18.4026 5.22577 18.2442 5.16121C18.1595 5.31116 18.0478 5.44511 17.9562 5.59055C17.7311 5.94758 17.516 6.32902 17.338 6.72123C17.1186 7.20444 16.9296 7.70839 16.7489 8.21266C16.6559 8.47202 16.558 8.73032 16.4718 8.99282C16.1613 9.93814 15.903 10.913 15.6668 11.887C15.5797 12.246 15.5065 12.609 15.4216 12.9685C15.324 13.3756 15.2336 13.7848 15.1506 14.1962C15.1169 14.3618 15.067 14.541 15.0574 14.7105C15.0997 14.7744 15.1402 14.8439 15.1651 14.9195C15.2003 15.0259 15.2004 15.1352 15.1601 15.2398C15.1041 15.3847 15.0039 15.4509 14.8839 15.5061C14.8396 15.6948 14.7847 15.9259 14.782 16.1214C14.7999 16.1365 14.8171 16.1524 14.8337 16.1693C14.8953 16.2322 14.9262 16.3092 14.9296 16.4048C14.9323 16.4799 14.8461 17.3393 14.8258 17.4228C14.8098 17.4887 14.7849 17.537 14.7441 17.586C14.3031 18.1158 12.0434 18.7003 11.3573 18.8278C10.8763 18.9173 10.3752 18.9802 9.88836 18.9954C8.22322 19.0473 6.57012 18.6549 5.00429 18.0094C4.79585 17.9234 4.35124 17.7683 4.20184 17.6018C4.15203 17.3085 3.97715 16.5607 4.02236 16.3157C4.0416 16.2114 4.1047 16.1516 4.1772 16.0966C4.15972 15.9356 4.17703 15.6536 4.11389 15.519C4.09138 15.5209 4.07016 15.527 4.04826 15.5329C4.0297 15.5252 4.01364 15.5177 3.99736 15.5043C3.90441 15.4281 3.83494 15.3086 3.81642 15.1768C3.79302 15.0101 3.84641 14.8916 3.92433 14.7597L3.92364 14.7443C3.91441 14.5667 3.86686 14.3911 3.83256 14.2183C3.75933 13.8502 3.68219 13.4833 3.60115 13.1175C3.1924 11.2244 2.77561 9.47705 2.08509 7.69036C1.86939 7.13226 1.66111 6.62482 1.38497 6.10239C1.21047 5.77223 1.01677 5.4011 0.766633 5.143C0.698904 5.17829 0.633195 5.20541 0.559475 5.21635C0.428849 5.23572 0.299194 5.20211 0.195976 5.10373C0.189124 5.09708 0.182413 5.09023 0.175848 5.08319C0.169283 5.07614 0.162874 5.06891 0.156612 5.06149C0.150354 5.05409 0.144253 5.0465 0.138313 5.03873C0.132373 5.03096 0.126604 5.02301 0.121001 5.01491C0.115399 5.00681 0.109968 4.99856 0.104713 4.99014C0.0994579 4.98171 0.0943844 4.97313 0.0894923 4.96442C0.0846001 4.95571 0.0798893 4.94687 0.07537 4.93788C0.0708507 4.92889 0.0665229 4.91979 0.0623865 4.91055C0.05825 4.9013 0.0543152 4.89195 0.0505717 4.88248C0.0468283 4.87302 0.0432915 4.86345 0.0399562 4.85377C0.0366209 4.84411 0.033487 4.83434 0.0305648 4.82448C0.0276427 4.81463 0.0249271 4.80469 0.022423 4.79468C0.019919 4.78467 0.0176266 4.7746 0.0155458 4.76446C0.013465 4.7543 0.0116009 4.7441 0.00995338 4.73385C0.00830587 4.72361 0.00686995 4.71331 0.00565573 4.70296C0.00444151 4.69262 0.00344396 4.68226 0.00266807 4.67187C-0.0119429 4.48102 0.0333359 4.27018 0.141457 4.12369C0.146676 4.11671 0.152042 4.10988 0.157554 4.10322C0.163061 4.09655 0.168709 4.09005 0.174493 4.08369C0.180277 4.07735 0.186191 4.07118 0.192232 4.06518C0.198273 4.05919 0.20444 4.05337 0.210728 4.04773C0.217015 4.04208 0.223419 4.03662 0.229939 4.03136C0.236458 4.02608 0.243083 4.021 0.249814 4.01612C0.256546 4.01125 0.263377 4.00656 0.27031 4.00206C0.277243 3.99757 0.284261 3.99328 0.291375 3.98921C0.298484 3.98511 0.305679 3.98123 0.312954 3.97757C0.320229 3.97391 0.327575 3.97046 0.334996 3.96723C0.342418 3.96399 0.349899 3.96096 0.357447 3.95816C0.364994 3.95536 0.372597 3.95278 0.38025 3.9504C0.387908 3.94803 0.395611 3.94589 0.403355 3.94398C0.411104 3.94206 0.418883 3.94037 0.426702 3.93891C0.434522 3.93743 0.442366 3.93619 0.450236 3.93519C0.458106 3.93417 0.465991 3.93339 0.473896 3.93284C0.618418 3.92153 0.769213 3.98762 0.877137 4.09987C0.980865 4.20776 1.03858 4.35888 1.04831 4.51991C1.0612 4.73331 0.992458 4.88603 0.87811 5.04313C1.03668 5.12122 1.18706 5.22283 1.33765 5.31969C1.66435 5.52896 1.98341 5.7532 2.29481 5.99242C2.52245 6.16231 2.74738 6.33699 2.96958 6.51647C3.19181 6.69597 3.41117 6.88014 3.62766 7.06899C3.84416 7.25783 4.05766 7.45125 4.26815 7.64922C4.47865 7.84718 4.686 8.04957 4.89022 8.25639C5.21389 8.58766 5.53533 8.93122 5.84654 9.27841C5.99816 9.44754 6.14232 9.62548 6.29634 9.79173C6.14164 10.0297 5.98117 10.2622 5.81495 10.4892C5.97553 10.352 6.12585 10.1916 6.26831 10.0294C7.86591 8.19716 8.61533 5.63119 9.13209 3.14274C9.17908 2.91946 9.21802 2.69427 9.24891 2.46717C9.27072 2.30707 9.28331 2.13732 9.31744 1.98052L9.31986 1.96983C9.32234 2.08916 9.30679 2.21644 9.29808 2.33585L9.23143 3.16254C9.07688 5.22616 8.83776 6.83778 7.98213 8.69444C7.50694 9.72555 6.65935 10.8025 5.67994 11.1457C6.26896 11.0656 6.70785 10.754 7.12805 10.2803C7.676 9.66261 8.07843 8.90463 8.39399 8.09938C9.05736 6.40655 9.27481 4.80743 9.3671 2.96664C9.39207 2.48342 9.40982 1.99983 9.42035 1.51587C9.33646 1.49581 9.25909 1.47072 9.18383 1.42142C9.03286 1.32246 8.92167 1.14881 8.87589 0.954012C8.87295 0.941591 8.87028 0.929099 8.86788 0.916524C8.86547 0.903949 8.86333 0.891315 8.86147 0.878622C8.85959 0.865929 8.85799 0.853183 8.85666 0.840395C8.85534 0.827608 8.85429 0.814791 8.85352 0.801938C8.85274 0.789091 8.85224 0.776221 8.852 0.763345C8.85176 0.750463 8.85181 0.737586 8.85214 0.724704C8.85245 0.711822 8.85305 0.698958 8.85391 0.686111C8.85477 0.673265 8.85591 0.660453 8.85732 0.647678C8.85873 0.634908 8.86042 0.622179 8.86237 0.609498C8.86433 0.596817 8.86655 0.584207 8.86904 0.571667C8.87154 0.55911 8.87429 0.546636 8.87731 0.53425C8.88033 0.521864 8.88361 0.509573 8.88717 0.497388C8.89071 0.485186 8.89451 0.473095 8.89857 0.461123C8.90263 0.449151 8.90695 0.437309 8.91152 0.425597C8.91608 0.413873 8.92089 0.402291 8.92594 0.390857C8.931 0.379422 8.9363 0.368141 8.94184 0.357014C8.94677 0.346797 8.95192 0.336734 8.95727 0.326824C8.96264 0.316914 8.96821 0.307164 8.97398 0.297579C8.97975 0.288006 8.98573 0.278605 8.99191 0.269375C8.99809 0.260144 9.00446 0.251091 9.01102 0.242228C9.0176 0.233381 9.02434 0.224725 9.03127 0.216257C9.03822 0.207795 9.04533 0.199545 9.05263 0.191509C9.05991 0.18346 9.06736 0.175637 9.07499 0.168031C9.08261 0.160432 9.0904 0.153057 9.09835 0.145919C9.10628 0.138781 9.11437 0.131867 9.1226 0.125189C9.13084 0.118524 9.13921 0.112106 9.14771 0.105937C9.15622 0.0997502 9.16486 0.0938292 9.17363 0.0881622C9.1824 0.0825012 9.19127 0.0771001 9.20026 0.0719591C9.20926 0.0668062 9.21836 0.0619251 9.22756 0.0573218C9.23676 0.0527067 9.24606 0.0483634 9.25544 0.0443037C9.26484 0.0402382 9.27431 0.0364622 9.28386 0.0329698C9.29342 0.0294597 9.30303 0.0262393 9.31271 0.0232965C9.4774 -0.0278361 9.65447 0.00732383 9.80068 0.107964C9.94496 0.207292 10.0541 0.359177 10.0967 0.550577C10.1416 0.752874 10.1188 0.956908 10.0275 1.13716C9.91847 1.35252 9.76295 1.45022 9.56111 1.50935C9.61121 2.87316 9.66587 4.31224 9.89898 5.64897C9.95028 5.93614 10.0102 6.22082 10.0786 6.50302C10.1471 6.78521 10.224 7.06422 10.3093 7.34005C10.3838 7.58728 10.4669 7.83043 10.5587 8.0695C10.6505 8.30856 10.7507 8.54269 10.8592 8.77191C11.2692 9.62464 11.8664 10.5084 12.6261 10.9595C12.8324 11.082 13.0486 11.1644 13.2707 11.237C12.8091 10.9013 12.3647 10.656 11.9629 10.2123C10.8025 8.93084 10.1925 6.801 9.93702 4.99529C9.87046 4.52493 9.83722 4.0469 9.79544 3.57282C9.76811 3.2617 9.74267 2.95036 9.7191 2.63882C9.70462 2.45166 9.685 2.26104 9.68024 2.07326ZM18.1278 5.04717C17.53 5.50158 16.9264 6.12279 16.42 6.71115C16.3047 6.8452 16.1744 6.98323 16.07 7.12859C16.0524 7.1531 16.0472 7.16318 16.0483 7.19516L16.0764 7.22521C16.1063 7.22845 16.1225 7.20292 16.1438 7.1799C16.2981 7.01327 16.4401 6.82625 16.5908 6.65432C16.7959 6.42035 17.0151 6.19837 17.2345 5.98312C17.3568 5.86318 17.4864 5.72782 17.6244 5.63366C17.6271 5.63184 17.6299 5.63006 17.6326 5.62826C17.5783 5.74262 17.2881 6.05654 17.1911 6.1822C17.0027 6.42647 16.8252 6.68712 16.6538 6.94796C16.4025 7.33053 16.1381 7.70815 15.9204 8.11852C15.5066 8.89819 15.2051 9.75784 14.947 10.6219C14.7514 11.2769 14.5778 11.931 14.464 12.6132C14.2413 12.8576 14.0358 13.121 13.8103 13.3624C13.8779 13.6289 13.9861 13.891 14.0974 14.1357C14.0539 13.9423 13.9894 13.7265 14.004 13.5241C14.0088 13.4587 14.0262 13.4102 14.0559 13.355C14.1722 13.1384 14.6266 12.6085 14.8079 12.4347C14.8306 12.6387 14.8373 12.8455 14.8563 13.0501C14.8791 13.2964 14.9161 13.5425 14.9478 13.7875C14.9468 13.7894 14.9458 13.7913 14.9447 13.7931C14.9043 13.8624 14.9008 13.9278 14.8729 14.0013C14.8153 14.1532 14.6902 14.2773 14.5819 14.3779L14.6669 14.4287C14.7555 14.3297 14.8306 14.2166 14.9152 14.1132C14.9619 14.0562 15.027 14.0007 15.0666 13.9385C15.0855 13.9089 14.9927 13.4101 14.981 13.3214C14.9653 13.2002 14.9525 13.0825 14.9621 12.9597C14.9741 12.8071 15.0094 12.6507 15.036 12.5006C15.1222 12.0241 15.2255 11.5527 15.3459 11.0865C15.4616 10.6388 15.5729 10.184 15.7107 9.74485C16.0536 8.65187 16.5551 7.4688 17.1423 6.53041C17.3225 6.24674 17.5158 5.97587 17.7221 5.7178C17.8826 5.51476 18.0416 5.3211 18.2223 5.1425C18.189 5.11319 18.1587 5.07974 18.1278 5.04717ZM9.43317 0.232625C9.36743 0.246778 9.3007 0.262378 9.26185 0.333153C9.24705 0.360158 9.23917 0.391412 9.24716 0.423387C9.2571 0.463044 9.28767 0.488761 9.31933 0.502263C9.35872 0.519069 9.39944 0.516274 9.44055 0.513964C9.50286 0.495592 9.57412 0.470797 9.60774 0.400489C9.62035 0.37408 9.62545 0.346082 9.61549 0.316926C9.60362 0.28228 9.57562 0.261273 9.54655 0.250146C9.51142 0.236714 9.47013 0.230894 9.43317 0.232625ZM0.332119 4.12251C0.252732 4.14049 0.199205 4.17699 0.152123 4.25595C0.134151 4.28608 0.126387 4.31151 0.131133 4.34879C0.145815 4.37208 0.155539 4.38614 0.181138 4.3918C0.20046 4.39605 0.223117 4.3959 0.242816 4.39551C0.325499 4.37636 0.382955 4.34427 0.431922 4.26029C0.449254 4.23059 0.453259 4.20932 0.447243 4.17449C0.432335 4.14919 0.41785 4.13481 0.391677 4.12908C0.372234 4.12482 0.351844 4.1239 0.332119 4.12251ZM18.6105 4.12138C18.5876 4.13944 18.5644 4.15566 18.5569 4.18927C18.5491 4.22364 18.5582 4.25517 18.5764 4.28246C18.6172 4.34354 18.6971 4.38804 18.7621 4.39538C18.7783 4.3972 18.7941 4.39724 18.8102 4.39678C18.8423 4.38489 18.8496 4.38481 18.8716 4.35323C18.8771 4.3078 18.8703 4.28019 18.8459 4.24393C18.8076 4.18701 18.736 4.1247 18.6718 4.11981C18.6515 4.11829 18.6308 4.11998 18.6105 4.12138ZM9.44153 4.59382C9.39434 4.6305 9.35688 4.66503 9.34383 4.73274C9.33567 4.77514 9.34029 4.82066 9.3608 4.85745C9.38278 4.8969 9.42027 4.9231 9.45934 4.93194C9.49211 4.93937 9.52275 4.93383 9.55501 4.92633C9.60167 4.89976 9.64194 4.8655 9.6586 4.805C9.66874 4.76819 9.66488 4.72895 9.64935 4.69497C9.62688 4.64576 9.58401 4.60776 9.53762 4.59543C9.50587 4.58699 9.47365 4.59059 9.44153 4.59382ZM0.851185 5.06107L0.828785 5.09777C0.842021 5.16838 0.993148 5.31858 1.04279 5.38116C1.2871 5.6892 1.53609 5.99191 1.75076 6.33005C2.3261 7.23626 2.71364 8.17713 3.0782 9.21819C3.2302 9.64184 3.36849 10.0716 3.49305 10.5073C3.6176 10.9431 3.7281 11.3838 3.82453 11.8293C3.89227 12.1422 3.99743 12.5875 4.01927 12.904C4.04132 13.2231 3.96001 13.5481 3.93351 13.8641C4.00632 13.9758 4.25048 14.3608 4.32988 14.4096L4.35633 14.4099C4.37392 14.3876 4.3787 14.3854 4.38161 14.3558C4.26859 14.1881 4.14931 14.0262 4.03606 13.8585C4.04289 13.6508 4.07133 13.4416 4.09254 13.2354C4.12155 12.9534 4.13945 12.6536 4.20968 12.3812C4.32797 12.5319 4.4377 12.6919 4.55518 12.8438C4.70184 13.0335 4.86676 13.2219 4.99069 13.4331C4.94146 13.672 4.93883 13.9131 4.93035 14.1574L5.0419 14.1185C5.04914 13.8711 5.06339 13.6266 5.09923 13.3824C5.00919 13.2502 4.91145 13.1249 4.81578 12.9984C4.73452 12.886 4.54559 12.6714 4.50085 12.551C4.46003 12.4411 4.44457 12.2997 4.42122 12.1824C4.37468 11.9485 4.32721 11.7144 4.27679 11.4816C4.12084 10.762 3.87304 9.89445 3.59023 9.23165C3.27258 8.48725 2.89104 7.81256 2.46633 7.14717C2.35509 6.97292 2.24864 6.79396 2.13087 6.62566C1.98062 6.41102 1.82701 6.19973 1.67007 5.9918C1.58367 5.87726 1.48672 5.76478 1.40739 5.64412C2.04266 6.25464 2.65888 6.89005 3.21683 7.59906L3.27896 7.4969C3.00757 7.16629 2.72705 6.84669 2.43742 6.5381C2.1478 6.22951 1.8497 5.93262 1.54313 5.64742C1.3199 5.44191 1.09468 5.23272 0.851185 5.06107ZM9.45251 5.24075C9.39967 5.27689 9.35714 5.31433 9.33902 5.38613C9.3376 5.39167 9.33643 5.39728 9.33549 5.40295C9.33455 5.40863 9.33385 5.41435 9.33339 5.4201C9.33294 5.42586 9.33273 5.43163 9.33276 5.43742C9.33278 5.44321 9.33306 5.44898 9.33359 5.45473C9.33409 5.46047 9.33485 5.46617 9.33585 5.47184C9.33685 5.4775 9.33809 5.4831 9.33957 5.48862C9.34104 5.49415 9.34274 5.49956 9.34466 5.50487C9.34659 5.51019 9.34874 5.5154 9.3511 5.52048C9.3756 5.57302 9.42358 5.61001 9.47255 5.62405C9.50028 5.63199 9.53037 5.63081 9.55873 5.63003C9.61121 5.60087 9.64658 5.57022 9.66839 5.50481C9.67034 5.49882 9.67202 5.49273 9.67343 5.48655C9.67484 5.48036 9.67598 5.47411 9.67683 5.46778C9.6777 5.46146 9.67828 5.4551 9.67859 5.44871C9.67887 5.44231 9.67889 5.4359 9.67863 5.4295C9.67836 5.42312 9.67782 5.41676 9.67699 5.41042C9.67615 5.40409 9.67504 5.39783 9.67367 5.39163C9.67229 5.38544 9.67064 5.37935 9.66873 5.37334C9.66681 5.36736 9.66463 5.3615 9.66219 5.35576C9.65941 5.34936 9.65636 5.34312 9.65304 5.33706C9.64972 5.33102 9.64615 5.32517 9.64233 5.31954C9.63852 5.31392 9.63447 5.30854 9.63019 5.30338C9.62591 5.29823 9.62143 5.29333 9.61673 5.28871C9.61203 5.28409 9.60715 5.27975 9.60209 5.27569C9.59703 5.27164 9.5918 5.2679 9.5864 5.26447C9.58102 5.26103 9.57551 5.25791 9.56985 5.25512C9.5642 5.25234 9.55844 5.24989 9.55257 5.24778C9.52053 5.23585 9.48559 5.238 9.45251 5.24075ZM9.47397 5.95602C9.39851 5.99163 9.33547 6.03397 9.30255 6.12642C9.29991 6.13367 9.2976 6.14105 9.2956 6.14858C9.29362 6.15612 9.29197 6.16375 9.29064 6.17147C9.28932 6.1792 9.28834 6.18699 9.28769 6.19483C9.28706 6.20268 9.28677 6.21055 9.28681 6.21842C9.28686 6.2263 9.28725 6.23416 9.28798 6.24201C9.28874 6.24985 9.28981 6.25761 9.29123 6.2653C9.29265 6.27301 9.2944 6.28061 9.29649 6.2881C9.29857 6.2956 9.30098 6.30295 9.30371 6.31015C9.32773 6.37339 9.37623 6.41769 9.4316 6.43913C9.46509 6.4521 9.49686 6.45423 9.53182 6.45352C9.60601 6.42586 9.66226 6.38877 9.69778 6.30352C9.70108 6.2957 9.704 6.2877 9.70656 6.27951C9.70912 6.27133 9.7113 6.263 9.71311 6.25453C9.71491 6.24607 9.71632 6.23752 9.71734 6.22889C9.71838 6.22025 9.71902 6.21157 9.71925 6.20285C9.71949 6.19414 9.71934 6.18544 9.7188 6.17674C9.71825 6.16803 9.7173 6.15939 9.71597 6.15082C9.71463 6.14223 9.71291 6.13376 9.71081 6.1254C9.7087 6.11703 9.70622 6.10882 9.70337 6.10078C9.68068 6.03674 9.63355 5.98963 9.57803 5.96759C9.54411 5.95413 9.50929 5.95533 9.47397 5.95602ZM9.4054 6.59502C9.37149 7.89986 9.32057 9.22343 9.15494 10.5148C9.10137 10.9325 9.04423 11.3826 8.91899 11.7805C8.85963 11.9692 8.75021 12.1483 8.65791 12.3171C8.72098 12.4627 8.79801 12.6003 8.86963 12.7404C8.98555 12.9671 9.09926 13.1941 9.22691 13.4123L9.37314 13.4132C9.20156 13.0443 9.01019 12.6822 8.82029 12.3261C8.98639 11.9563 9.1423 11.5839 9.31868 11.2203C9.37471 11.1048 9.42785 10.982 9.49211 10.8728L9.53893 10.9503C9.77951 11.3865 9.95348 11.8687 10.1741 12.318C9.98928 12.6802 9.79397 13.0401 9.62013 13.4093C9.66461 13.4191 9.70899 13.4304 9.75416 13.4346C9.83447 13.3364 9.89415 13.2061 9.95374 13.0897C10.0839 12.8355 10.2023 12.5745 10.3274 12.3172C10.2476 12.1385 10.1282 11.9729 10.0704 11.7835C9.98491 11.5034 9.9339 11.194 9.89198 10.9011C9.77388 10.0754 9.75447 9.25647 9.717 8.42283C9.68879 7.81418 9.65026 7.20643 9.6014 6.59958C9.53489 6.60495 9.4717 6.60417 9.4054 6.59502ZM15.8869 7.20174C15.8502 7.22683 15.8185 7.24783 15.8075 7.30002C15.7987 7.34199 15.8103 7.38511 15.8326 7.41833C15.87 7.47403 15.919 7.50075 15.978 7.5075C15.9808 7.50782 15.9836 7.50789 15.9864 7.50808C16.0257 7.47387 16.0605 7.43954 16.0668 7.37895C16.071 7.33927 16.0609 7.30167 16.0393 7.27099C16.0088 7.22766 15.9618 7.20413 15.9145 7.20169C15.9053 7.20123 15.8961 7.20155 15.8869 7.20174ZM15.8151 7.4634C15.7911 7.47555 15.7646 7.48385 15.7506 7.51137C15.7601 7.53757 15.7648 7.5357 15.7849 7.54968C15.8094 7.52944 15.8403 7.5125 15.851 7.47949C15.8372 7.47012 15.8312 7.46679 15.8151 7.4634ZM15.5526 7.49131C15.5005 7.52307 15.459 7.55313 15.4422 7.62307C15.4294 7.67681 15.4379 7.7317 15.4631 7.77862C15.4899 7.82865 15.5373 7.86976 15.5872 7.88088C15.6138 7.88679 15.643 7.88414 15.6698 7.88231C15.723 7.85346 15.764 7.82248 15.7832 7.75425C15.7972 7.70443 15.7914 7.64872 15.7699 7.60303C15.7465 7.55345 15.7035 7.50749 15.6559 7.49332C15.6222 7.4833 15.5867 7.48736 15.5526 7.49131ZM3.36957 7.54837C3.31704 7.57919 3.26944 7.6145 3.25137 7.6841C3.23867 7.73299 3.24625 7.7825 3.26935 7.82537C3.29602 7.87486 3.34603 7.91281 3.39498 7.92312C3.42217 7.92885 3.4514 7.92806 3.47876 7.92488C3.5329 7.89346 3.58198 7.85891 3.60076 7.787C3.61229 7.74289 3.60643 7.69571 3.58675 7.65605C3.5616 7.60539 3.51118 7.56266 3.46215 7.55066C3.43263 7.54341 3.39958 7.54678 3.36957 7.54837ZM15.4634 7.83534C15.2241 8.03943 15.0179 8.31507 14.8219 8.57281C14.2751 9.29191 13.7885 10.0678 13.474 10.9639C13.4327 11.0817 13.4004 11.2035 13.3636 11.3232C13.3138 11.4852 13.2536 11.6347 13.2303 11.8069C13.2259 11.8398 13.2208 11.8604 13.2333 11.891L13.2482 11.8917C13.3433 11.7939 13.3728 11.5669 13.4095 11.4278C13.5714 10.8151 13.8806 10.2008 14.1986 9.68207C14.3604 9.41806 14.5379 9.16577 14.7149 8.91576C14.8674 8.70046 15.0201 8.4827 15.1853 8.28049C15.2432 8.20956 15.4827 7.95008 15.491 7.87137C15.4824 7.85789 15.4759 7.84415 15.4634 7.83534ZM3.62367 7.89092L3.54119 7.97439C4.18713 8.75138 4.91763 9.6966 5.33552 10.6701C5.44187 10.9179 5.51362 11.1791 5.60327 11.4349L5.61703 11.4542C5.6595 11.3676 5.60849 11.1217 5.58605 11.0272C5.36691 10.1041 4.52025 8.96995 3.96196 8.29138C3.88539 8.19829 3.70922 7.96053 3.63725 7.89906C3.63314 7.89556 3.62819 7.89362 3.62367 7.89092ZM9.49646 11.2707C9.31263 11.5897 9.13127 12.0642 8.92922 12.3368C9.05681 12.5579 9.16858 12.7892 9.28299 13.0197C9.34998 13.1547 9.41394 13.3091 9.50124 13.427C9.59915 13.2995 9.69787 13.0431 9.77449 12.8842C9.86689 12.6959 9.96107 12.5089 10.057 12.323C9.91888 12.102 9.79702 11.8513 9.6777 11.6155C9.62928 11.5198 9.56375 11.3435 9.49646 11.2707ZM5.7714 11.9459C5.6917 11.9843 5.63013 12.0376 5.59707 12.1343C5.59392 12.1434 5.59117 12.1528 5.58882 12.1623C5.58649 12.1717 5.58456 12.1813 5.58304 12.1911C5.58152 12.2008 5.58042 12.2106 5.57974 12.2204C5.57905 12.2303 5.5788 12.2401 5.57897 12.25C5.57913 12.2599 5.57971 12.2697 5.58072 12.2796C5.58173 12.2894 5.58316 12.2991 5.58501 12.3087C5.58685 12.3184 5.5891 12.3279 5.59176 12.3373C5.59443 12.3466 5.59748 12.3558 5.60093 12.3649C5.62917 12.4396 5.68044 12.4944 5.74527 12.5236C5.79037 12.5439 5.84082 12.5385 5.88785 12.5316C5.96973 12.4936 6.03633 12.4446 6.0724 12.346C6.09872 12.2741 6.09822 12.1873 6.07147 12.1156C6.04398 12.042 5.99098 11.9894 5.92721 11.9621C5.87811 11.9411 5.82295 11.9413 5.7714 11.9459ZM13.0845 11.992C13.0105 12.0264 12.9506 12.0716 12.9189 12.1614C12.916 12.1696 12.9135 12.1779 12.9113 12.1864C12.9092 12.1949 12.9074 12.2035 12.9059 12.2122C12.9045 12.2209 12.9034 12.2296 12.9028 12.2384C12.9021 12.2473 12.9018 12.2561 12.9018 12.2649C12.9019 12.2738 12.9023 12.2826 12.9032 12.2914C12.904 12.3002 12.9052 12.309 12.9067 12.3176C12.9083 12.3263 12.9103 12.3348 12.9126 12.3433C12.9149 12.3517 12.9175 12.36 12.9205 12.3681C12.9476 12.4429 13.0019 12.5008 13.0666 12.5291C13.1146 12.5501 13.1588 12.547 13.209 12.5414C13.2837 12.5011 13.3436 12.4511 13.3747 12.3582C13.3774 12.3501 13.3798 12.3418 13.3818 12.3333C13.3839 12.3249 13.3856 12.3164 13.3869 12.3077C13.3882 12.2991 13.3892 12.2904 13.3898 12.2817C13.3904 12.2729 13.3906 12.2642 13.3905 12.2554C13.3903 12.2466 13.3898 12.2379 13.389 12.2291C13.3881 12.2204 13.3869 12.2118 13.3853 12.2032C13.3837 12.1947 13.3818 12.1862 13.3795 12.1778C13.3772 12.1695 13.3745 12.1613 13.3715 12.1532C13.3467 12.0868 13.2984 12.0365 13.2409 12.0107C13.1907 11.9882 13.1374 11.9869 13.0845 11.992ZM4.25609 12.7369C4.20334 13.1012 4.15479 13.4769 4.12605 13.8449C4.22424 14.0282 4.36185 14.1751 4.47202 14.3469C4.54574 14.3152 4.6199 14.2844 4.69234 14.2488L4.85674 14.182C4.81909 14.0045 4.852 13.6813 4.88752 13.4979C4.72924 13.3381 4.58479 13.1538 4.44324 12.9741C4.38254 12.897 4.32249 12.8064 4.25609 12.7369ZM8.37084 12.7768C8.32276 12.7963 8.28258 12.8176 8.26081 12.8753C8.25924 12.8794 8.25786 12.8836 8.25665 12.8879C8.25546 12.8922 8.25445 12.8966 8.25362 12.901C8.2528 12.9054 8.25215 12.9099 8.25169 12.9144C8.25124 12.9189 8.251 12.9234 8.25095 12.9279C8.25088 12.9324 8.25101 12.9369 8.25134 12.9414C8.25166 12.9459 8.25217 12.9504 8.25288 12.9549C8.25359 12.9593 8.25448 12.9637 8.25555 12.968C8.25664 12.9724 8.2579 12.9766 8.25935 12.9808C8.27474 13.0263 8.3094 13.0661 8.34893 13.0823C8.37342 13.0924 8.40125 13.0919 8.42691 13.0922C8.4726 13.0679 8.51049 13.0466 8.52925 12.9886C8.5418 12.9498 8.54171 12.9066 8.52588 12.869C8.51018 12.8317 8.47861 12.8001 8.44499 12.7869C8.42191 12.7778 8.39505 12.7776 8.37084 12.7768ZM10.603 12.7876C10.5597 12.8171 10.5203 12.8431 10.5072 12.9037C10.5062 12.9082 10.5054 12.9128 10.5049 12.9175C10.5043 12.9221 10.5039 12.9268 10.5038 12.9315C10.5037 12.9361 10.5038 12.9408 10.5041 12.9455C10.5044 12.9502 10.5049 12.9548 10.5057 12.9594C10.5064 12.964 10.5074 12.9685 10.5085 12.973C10.5097 12.9775 10.5111 12.9819 10.5127 12.9862C10.5143 12.9905 10.5161 12.9947 10.518 12.9988C10.52 13.0029 10.5222 13.0068 10.5245 13.0106C10.5501 13.0521 10.5916 13.0804 10.6347 13.0873C10.6543 13.0904 10.6743 13.0892 10.6939 13.0881C10.7361 13.0632 10.7685 13.0372 10.7853 12.9831C10.7958 12.9493 10.7944 12.9106 10.7799 12.8787C10.7606 12.8364 10.7255 12.7995 10.6848 12.7891C10.6589 12.7825 10.6293 12.7861 10.603 12.7876ZM14.6931 12.7857C14.4851 13.0263 14.1226 13.3814 14.1208 13.7495C14.1204 13.8563 14.1716 14.1641 14.2453 14.2281C14.2602 14.2411 14.2612 14.2393 14.2771 14.2478C14.283 14.251 14.2889 14.2544 14.2948 14.2578C14.3491 14.2847 14.4029 14.313 14.4593 14.3333C14.6112 14.2351 14.7547 14.1211 14.8066 13.914C14.8685 13.667 14.7794 13.3724 14.7441 13.1276C14.7283 13.0174 14.7215 12.9067 14.7019 12.7971L14.6931 12.7857ZM7.59196 12.8463C7.553 12.8725 7.5219 12.8944 7.50771 12.947C7.49771 12.9842 7.50047 13.024 7.51666 13.0582C7.53646 13.0999 7.57543 13.1329 7.61504 13.1433C7.63652 13.1489 7.65846 13.1473 7.68024 13.1463C7.72124 13.1222 7.74852 13.1016 7.76509 13.0495C7.77713 13.0116 7.77632 12.9743 7.76178 12.9375C7.74614 12.8979 7.71551 12.8639 7.67977 12.8508C7.65091 12.8402 7.62162 12.8433 7.59196 12.8463ZM11.2991 12.8595C11.2662 12.8894 11.2307 12.9215 11.2241 12.9734C11.2193 13.0115 11.2254 13.0444 11.2463 13.0742C11.2711 13.1096 11.3104 13.1301 11.349 13.1322C11.3713 13.1337 11.3934 13.1321 11.4154 13.1275C11.4563 13.0973 11.4932 13.0649 11.5007 13.0045C11.5051 12.9689 11.4943 12.9362 11.474 12.9102C11.448 12.8768 11.4118 12.854 11.3729 12.8518C11.3485 12.8505 11.3232 12.8556 11.2991 12.8595ZM6.87541 12.949C6.83205 12.976 6.79444 13.0011 6.77889 13.0592C6.76937 13.0948 6.77171 13.1345 6.78787 13.167C6.80755 13.2065 6.84225 13.2381 6.88047 13.2483C6.90245 13.2542 6.92544 13.254 6.94785 13.2539C6.98955 13.2295 7.02278 13.205 7.03707 13.15C7.04641 13.1141 7.04212 13.0767 7.02687 13.0441C7.00394 12.995 6.9643 12.9663 6.91868 12.9543C6.90426 12.9505 6.89013 12.9494 6.87541 12.949ZM12.0586 12.9492C12.0167 12.9795 11.9853 13.0054 11.9721 13.0636C11.9634 13.1019 11.9674 13.142 11.985 13.1758C12.0045 13.2131 12.0392 13.2415 12.0756 13.2499C12.0997 13.2554 12.1246 13.2521 12.1488 13.2494C12.1897 13.2182 12.2222 13.1857 12.2328 13.1272C12.2337 13.1225 12.2344 13.1179 12.2348 13.1132C12.2353 13.1085 12.2356 13.1038 12.2356 13.099C12.2356 13.0943 12.2354 13.0896 12.235 13.0849C12.2346 13.0802 12.234 13.0755 12.2332 13.0709C12.2324 13.0662 12.2314 13.0617 12.2301 13.0572C12.2289 13.0527 12.2275 13.0483 12.2258 13.0439C12.2242 13.0396 12.2224 13.0354 12.2204 13.0313C12.2183 13.0272 12.2161 13.0232 12.2138 13.0194C12.1902 12.9809 12.1559 12.9577 12.1161 12.9513C12.0968 12.9483 12.0779 12.9484 12.0586 12.9492ZM6.16002 13.0872C6.11536 13.1037 6.07673 13.1188 6.05354 13.1701C6.03691 13.2068 6.03315 13.2504 6.04614 13.2895C6.05952 13.3297 6.08885 13.366 6.12349 13.3818C6.1447 13.3914 6.16925 13.3937 6.19172 13.3968C6.23636 13.3826 6.2754 13.3659 6.29952 13.3163C6.31548 13.2834 6.3189 13.2457 6.3103 13.2094C6.30029 13.1671 6.27364 13.1322 6.24111 13.1115C6.21652 13.0958 6.18755 13.0907 6.16002 13.0872ZM12.7384 13.0881C12.691 13.1251 12.658 13.1578 12.6487 13.227C12.6436 13.2648 12.6511 13.304 12.6717 13.334C12.6956 13.3689 12.7319 13.3849 12.7692 13.3871C12.7896 13.3882 12.81 13.3842 12.83 13.3802C12.8715 13.3517 12.9071 13.3231 12.9201 13.2655C12.9286 13.2277 12.9225 13.1894 12.9032 13.1576C12.9002 13.1526 12.897 13.1478 12.8935 13.1433C12.8901 13.1387 12.8864 13.1344 12.8826 13.1303C12.8788 13.1262 12.8747 13.1223 12.8705 13.1187C12.8663 13.1152 12.862 13.1118 12.8575 13.1088C12.853 13.1058 12.8484 13.103 12.8436 13.1006C12.8388 13.0981 12.834 13.096 12.829 13.0942C12.8241 13.0923 12.8191 13.0908 12.8139 13.0896C12.8089 13.0884 12.8037 13.0876 12.7986 13.087C12.7787 13.0849 12.7583 13.0866 12.7384 13.0881ZM13.3854 13.2721C13.3422 13.3021 13.3114 13.3276 13.2981 13.3871C13.2971 13.3915 13.2963 13.3959 13.2956 13.4004C13.295 13.4049 13.2946 13.4094 13.2943 13.4139C13.294 13.4184 13.294 13.423 13.2941 13.4275C13.2943 13.432 13.2946 13.4366 13.2951 13.4411C13.2956 13.4456 13.2964 13.45 13.2973 13.4544C13.2982 13.4589 13.2993 13.4632 13.3005 13.4675C13.3018 13.4718 13.3033 13.476 13.3049 13.4801C13.3065 13.4842 13.3083 13.4882 13.3103 13.4921C13.3301 13.5308 13.3661 13.5638 13.4048 13.5704C13.4277 13.5743 13.4529 13.5702 13.4759 13.5679C13.5206 13.5366 13.5554 13.5069 13.5674 13.4442C13.5744 13.4078 13.5691 13.3716 13.5511 13.3407C13.5301 13.3049 13.4956 13.2775 13.4586 13.2716C13.4348 13.2678 13.4093 13.2706 13.3854 13.2721ZM5.46527 13.3078C5.42632 13.3435 5.39703 13.3727 5.3895 13.4327C5.38476 13.4703 5.39162 13.5106 5.41252 13.5403C5.43655 13.5745 5.47076 13.5924 5.50807 13.5944C5.52529 13.5953 5.54194 13.5935 5.55897 13.5905C5.59786 13.5643 5.6295 13.5378 5.64223 13.4847C5.65092 13.4485 5.64584 13.4116 5.62885 13.3801C5.60884 13.343 5.57374 13.3153 5.53706 13.307C5.51335 13.3016 5.48906 13.3049 5.46527 13.3078ZM9.16488 13.5895C7.79036 13.6103 6.41738 13.804 5.09948 14.2705C4.74787 14.395 4.21049 14.6086 3.96096 14.918C3.90756 14.9842 3.86914 15.0594 3.87377 15.1535C3.87804 15.2397 3.91524 15.3214 3.95859 15.3893C4.09673 15.02 4.50125 14.8366 4.80337 14.698C6.27871 14.0213 8.26018 13.8392 9.84329 13.8758C11.2428 13.94 12.6182 14.1013 13.9592 14.6007C14.2538 14.7104 14.7145 14.8933 14.9252 15.1595C14.9702 15.2164 15.0008 15.2666 14.9984 15.3462C14.998 15.3578 14.9971 15.3693 14.9963 15.3809C15.0394 15.3579 15.0837 15.2695 15.1009 15.2167C15.1231 15.1484 15.1133 15.0745 15.0864 15.0103C14.9397 14.6604 14.3582 14.4103 14.0517 14.2978C13.818 14.2121 13.5828 14.1473 13.3445 14.0824C13.2106 14.046 13.078 14.0024 12.9431 13.9708C12.4759 13.8616 12.0031 13.7932 11.53 13.7318C10.7431 13.6297 9.95685 13.5692 9.16488 13.5895ZM5.68837 14.6155C5.37244 14.6545 4.7412 14.8808 4.53085 15.1703C4.54819 15.3865 4.57822 15.6057 4.61599 15.8184C4.88482 15.6644 5.17332 15.5469 5.45275 15.4219L6.9043 14.7807C6.62387 14.6807 5.97488 14.5601 5.68837 14.6155ZM12.9266 14.6276C12.6308 14.6395 12.3431 14.6838 12.0522 14.7475C12.2556 14.8206 12.4595 14.8892 12.6554 14.9875C12.8005 15.0616 12.944 15.1398 13.086 15.222C13.1751 15.2732 13.2655 15.3342 13.3592 15.3718C13.4811 15.4207 13.6179 15.4425 13.7449 15.4671C13.9564 15.5243 14.151 15.6076 14.3507 15.706C14.4 15.4961 14.4425 15.272 14.3802 15.0598C14.2007 14.8554 13.6648 14.6969 13.4192 14.6561C13.2648 14.6323 13.1097 14.6225 12.9539 14.6268C12.9448 14.627 12.9357 14.6272 12.9266 14.6276ZM9.02493 15.0091C8.60316 15.0283 8.17955 15.0554 7.76022 15.1138C7.55612 15.1435 7.35266 15.1783 7.14984 15.2183C6.94703 15.2584 6.74505 15.3035 6.54391 15.3538C6.34277 15.4042 6.14266 15.4596 5.94357 15.5201C5.74448 15.5806 5.54661 15.6462 5.34997 15.7168C5.14572 15.7918 4.93581 15.8622 4.74063 15.9664C4.62757 16.0267 4.52385 16.1036 4.41813 16.1792C4.3308 16.2417 4.20787 16.3026 4.13919 16.3916C4.11498 16.4229 4.09237 16.4683 4.09395 16.5121C4.09547 16.5544 4.11625 16.6027 4.13065 16.6411C4.34838 16.4908 4.55725 16.304 4.78938 16.1843C4.99371 16.079 5.21773 16.0091 5.43103 15.9323C5.86639 15.7755 6.30989 15.6597 6.75717 15.5603C7.01853 15.5 7.28115 15.4485 7.54501 15.4058C7.80887 15.3631 8.07357 15.3293 8.33908 15.3043C8.60461 15.2794 8.87051 15.2634 9.13682 15.2563C9.40311 15.2493 9.66936 15.2512 9.93558 15.262C11.376 15.3218 13.6836 15.6102 14.8374 16.6606L14.8651 16.4477C14.8127 16.3967 14.759 16.3477 14.704 16.3006C14.6489 16.2536 14.5927 16.2087 14.5352 16.1659C14.4777 16.123 14.4191 16.0824 14.3594 16.044C14.2997 16.0056 14.239 15.9694 14.1773 15.9355C12.985 15.2915 11.1536 15.0465 9.8359 15.0088C9.56778 15.0011 9.29241 14.9878 9.02493 15.0091ZM8.85802 16.2782C7.49 16.3323 6.07836 16.5126 4.81345 17.1632C4.65496 17.2447 4.41277 17.3492 4.29305 17.4906C4.27666 17.5099 4.27016 17.5252 4.26739 17.552C4.28083 17.5774 4.2822 17.5796 4.30539 17.5918C4.37226 17.5765 4.6819 17.2781 4.81945 17.2138C5.04322 17.2702 5.26354 17.3458 5.48574 17.4101C5.86352 17.5149 6.24204 17.6159 6.62129 17.7133C6.7638 17.7499 6.90674 17.7839 7.05013 17.8154C7.19353 17.8469 7.3373 17.8758 7.48145 17.9021C7.62559 17.9284 7.77005 17.9522 7.91482 17.9733C8.05959 17.9944 8.20461 18.0129 8.34987 18.0288C8.49512 18.0447 8.64055 18.058 8.78615 18.0686C8.93174 18.0793 9.07746 18.0874 9.22328 18.0928C9.36909 18.0982 9.51493 18.101 9.66082 18.1012C9.80671 18.1014 9.95256 18.099 10.0984 18.0939C10.9479 18.0376 11.7732 17.895 12.6032 17.678C13.0966 17.5491 13.5723 17.407 14.0426 17.1861C14.2047 17.2548 14.3562 17.3278 14.5046 17.4326C14.5544 17.4677 14.5919 17.5332 14.6425 17.5619C14.6604 17.5357 14.6732 17.5173 14.6794 17.4835C14.6378 17.3966 14.4887 17.329 14.4148 17.2855C14.1076 17.1047 13.8014 16.9426 13.4695 16.8336C12.0323 16.3614 10.3477 16.2346 8.85802 16.2782Z" fill="#B3BEC1"/>
<path d="M11.9265 8.33921C12.0113 8.27938 12.0935 8.16315 12.161 8.07814C12.6076 7.51523 12.8623 6.78318 13.1078 6.08038C13.1548 5.94597 13.193 5.80703 13.2437 5.67456C13.0919 6.56856 12.9319 7.56724 13.0216 8.47869C13.0347 8.61204 13.0469 8.75456 13.0876 8.88052C12.9767 8.06417 13.1558 7.00381 13.2646 6.18173C13.2907 5.98396 13.3138 5.65884 13.3642 5.47932C13.3492 5.78979 13.3127 6.09767 13.3017 6.40924C13.2816 6.9781 13.2924 7.57634 13.3547 8.14138C13.3773 8.34643 13.4167 8.54799 13.4446 8.75192C13.2428 9.07449 12.8212 9.4118 12.5047 9.55129C12.1545 9.11006 11.8087 8.61581 11.5662 8.08169C11.7267 7.86797 11.8818 7.64897 12.0315 7.42468C12.1811 7.20039 12.3251 6.97119 12.4634 6.73709C12.6017 6.50297 12.7341 6.26433 12.8606 6.02119C12.987 5.77805 13.1074 5.5308 13.2216 5.27945C13.1086 5.19531 13.039 5.08742 13.007 4.93223C12.9749 4.77647 13.0017 4.6214 13.0754 4.48759C13.1374 4.37494 13.2256 4.30763 13.3376 4.28014C13.4483 4.25301 13.5714 4.27485 13.6658 4.34962C13.7614 4.42535 13.8245 4.54737 13.8457 4.67947C13.8695 4.82843 13.8475 4.97777 13.774 5.10339C13.7084 5.21564 13.6111 5.29775 13.4956 5.32129C13.4081 5.33914 13.3303 5.31963 13.2466 5.29232C13.1661 5.50023 13.1 5.71746 13.029 5.93024C12.8222 6.55069 12.6161 7.19971 12.3151 7.7676C12.2405 7.90845 12.1493 8.0358 12.0567 8.16061C12.0136 8.21862 11.9637 8.27628 11.9265 8.33921ZM13.5549 4.44105C13.5272 4.47898 13.5079 4.51219 13.5097 4.56418C13.5114 4.60961 13.5319 4.65127 13.5606 4.68081C13.6106 4.73234 13.6563 4.74593 13.7215 4.74937C13.7432 4.7253 13.7574 4.71165 13.76 4.67433C13.7639 4.6163 13.73 4.55645 13.6962 4.51804C13.6518 4.46751 13.6172 4.44189 13.5549 4.44105Z" fill="#24EE89"/>
<path d="M5.76694 5.77943L5.77098 5.78989C5.81634 5.91011 5.84801 6.03905 5.88652 6.16258C5.93786 6.32269 5.99371 6.48059 6.05406 6.63629C6.26585 7.17994 6.56165 7.70334 6.9123 8.13731C6.96831 8.20662 7.04068 8.30526 7.11312 8.34971C7.06657 8.2649 6.99303 8.18617 6.93646 8.10905C6.83489 7.97053 6.74359 7.8282 6.65904 7.67449C6.32892 7.07431 6.09706 6.42949 5.88783 5.76149C5.84239 5.61643 5.81 5.46639 5.76279 5.32211C5.72482 5.32857 5.68578 5.33586 5.64743 5.33778C5.51937 5.34424 5.37716 5.29016 5.28342 5.18605C5.19566 5.08855 5.15197 4.94775 5.15235 4.8074C5.1527 4.66593 5.19897 4.53761 5.28434 4.43796C5.36745 4.34094 5.47853 4.28025 5.59691 4.28231C5.71535 4.28439 5.82485 4.35571 5.90407 4.45622C5.99031 4.56563 6.0329 4.70595 6.02379 4.85468C6.01184 5.04979 5.93328 5.16796 5.81137 5.28819C5.89525 5.58862 6.03268 5.88546 6.17041 6.15649C6.40059 6.60944 7.04811 7.70408 7.42488 7.97824C7.3434 8.32453 6.62245 9.33773 6.38695 9.65932C6.11172 9.3573 5.84235 9.04963 5.56259 8.75315C5.6829 8.10297 5.71982 7.33311 5.70449 6.66841C5.69947 6.45012 5.69512 6.23159 5.68742 6.01339C5.68278 5.88186 5.67083 5.75022 5.67475 5.61853L5.6754 5.59917C5.72389 5.83203 5.74394 6.08411 5.77303 6.32183C5.82893 6.77861 5.88809 7.23429 5.90745 7.69577C5.9244 8.0994 5.9197 8.48786 5.89527 8.8907C5.89136 8.95515 5.88244 9.02828 5.90027 9.09037L5.91045 9.08973C5.96343 8.96037 5.9688 8.77386 5.97982 8.63112C6.05353 7.67798 5.94511 6.70896 5.76694 5.77943ZM5.42777 4.49161C5.37514 4.50627 5.33194 4.53012 5.30138 4.58494C5.28733 4.61012 5.27414 4.64274 5.27829 4.67355C5.28154 4.69765 5.2941 4.71797 5.31291 4.72858C5.34257 4.74534 5.3752 4.74124 5.40686 4.73846C5.4639 4.70876 5.5288 4.66956 5.549 4.59351C5.55384 4.57525 5.55081 4.5617 5.5467 4.54409C5.52536 4.51168 5.50702 4.50214 5.47346 4.49692C5.45827 4.49472 5.44304 4.49295 5.42777 4.49161Z" fill="#24EE89"/>
</svg>
