<svg width="21" height="20" viewBox="0 0 21 20" fill="none" xmlns="http://www.w3.org/2000/svg">
<path d="M10.3119 2.20938H10.3081C6.0125 2.20938 2.51937 5.70376 2.51937 10C2.51687 11.6406 3.03625 13.24 4.0025 14.5663L3.03125 17.4606L6.02562 16.5031C7.29562 17.3456 8.78687 17.7938 10.3119 17.7906C14.6075 17.7906 18.1006 14.2956 18.1006 10C18.1006 5.70438 14.6075 2.20938 10.3119 2.20938ZM14.845 13.2106C14.6569 13.7413 13.9112 14.1813 13.3162 14.31C12.9094 14.3969 12.3775 14.4656 10.5875 13.7238C8.29812 12.775 6.82375 10.4488 6.70875 10.2975C6.59875 10.1469 5.78375 9.06563 5.78375 7.94751C5.78375 6.82938 6.35125 6.28501 6.58062 6.05126C6.76875 5.85938 7.07937 5.77188 7.3775 5.77188C7.47375 5.77188 7.56062 5.77688 7.63875 5.78063C7.8675 5.79063 7.9825 5.80376 8.13312 6.16501C8.32125 6.61813 8.77875 7.73563 8.83312 7.85063C8.88875 7.96563 8.94437 8.12126 8.86625 8.27251C8.79312 8.42813 8.72875 8.49751 8.61375 8.63001C8.49875 8.76251 8.39 8.86376 8.275 9.00563C8.17 9.12938 8.05125 9.26188 8.18375 9.49063C8.31625 9.71438 8.77375 10.4619 9.44812 11.0613C10.3181 11.8356 11.0231 12.0825 11.275 12.1881C11.4631 12.2663 11.6869 12.2475 11.8244 12.1013C11.9987 11.9131 12.2137 11.6019 12.4331 11.295C12.5887 11.075 12.7856 11.0475 12.9919 11.1256C13.2025 11.1988 14.315 11.7488 14.5444 11.8631C14.7731 11.9781 14.9244 12.0325 14.98 12.1288C15.0344 12.225 15.0344 12.6781 14.8469 13.21L14.845 13.2106Z" fill="#B3BEC1"/>
</svg>
