<svg width="17" height="16" viewBox="0 0 17 16" fill="none" xmlns="http://www.w3.org/2000/svg">
<path fill-rule="evenodd" clip-rule="evenodd" d="M8.30651 0.0357666C12.718 0.0357666 16.3066 2.9831 16.3066 6.606C16.3066 8.0559 15.7516 9.3617 14.5922 10.6484C12.9138 12.6035 9.16051 14.9848 8.30651 15.349C7.47681 15.7029 7.57261 15.1497 7.61061 14.9305C7.61171 14.9242 7.61271 14.9182 7.61371 14.9125C7.63391 14.7908 7.72781 14.2195 7.72781 14.2195C7.75481 14.0128 7.78271 13.6921 7.70201 13.4874C7.61231 13.262 7.25771 13.145 6.99721 13.0882C3.15271 12.5739 0.306641 9.8539 0.306641 6.606C0.306641 2.9831 3.89571 0.0357666 8.30651 0.0357666ZM3.80381 7.8054H5.32861C5.41461 7.8054 5.48411 7.8759 5.48411 7.9629V8.5301C5.48411 8.6171 5.41461 8.6878 5.32861 8.6878H3.08671C3.00051 8.6878 2.93111 8.6157 2.93111 8.5301V5.007C2.93111 4.9201 3.00081 4.8495 3.08691 4.8495H3.64821C3.73411 4.8495 3.80381 4.9201 3.80381 5.007V7.8054ZM6.68111 4.8497H6.12001C6.03391 4.8497 5.96401 4.9202 5.96401 5.0069V8.5306C5.96401 8.6174 6.03391 8.6878 6.12001 8.6878H6.68111C6.76711 8.6878 6.83691 8.6174 6.83691 8.5306V5.0069C6.83691 4.9202 6.76711 4.8497 6.68111 4.8497ZM10.5436 4.8497H9.98241C9.89641 4.8497 9.82661 4.9202 9.82661 5.0069V7.1003L8.22921 4.9196C8.19971 4.8748 8.15181 4.8526 8.09951 4.8497H7.53851C7.45251 4.8497 7.38251 4.9202 7.38251 5.0069V8.5306C7.38251 8.6174 7.45251 8.6878 7.53851 8.6878H8.09951C8.18571 8.6878 8.25541 8.6174 8.25541 8.5306V6.4378L9.85491 8.6213C9.88361 8.6624 9.93231 8.6878 9.98241 8.6878H10.5436C10.6298 8.6878 10.6994 8.6174 10.6994 8.5306V5.0069C10.6994 4.9202 10.6298 4.8497 10.5436 4.8497ZM13.6425 5.7319C13.7285 5.7319 13.798 5.6615 13.798 5.5744V5.0072C13.798 4.9202 13.7285 4.8495 13.6425 4.8495H11.4008C11.3147 4.8495 11.245 4.9215 11.245 5.007V8.5303C11.245 8.6156 11.3145 8.6878 11.4005 8.6878H13.6425C13.7285 8.6878 13.798 8.6171 13.798 8.5303V7.9629C13.798 7.8761 13.7285 7.8054 13.6425 7.8054H12.1179V7.2098H13.6425C13.7285 7.2098 13.798 7.1393 13.798 7.0523V6.485C13.798 6.3981 13.7285 6.3274 13.6425 6.3274H12.1179V5.7319H13.6425Z" fill="#B3BEC1"/>
</svg>
