<svg width="17" height="17" viewBox="0 0 17 17" fill="none" xmlns="http://www.w3.org/2000/svg">
<path fill-rule="evenodd" clip-rule="evenodd" d="M0.846727 10.8551C1.8438 14.1277 4.8868 16.5105 8.4854 16.5105C12.8951 16.5105 16.4699 12.9357 16.4699 8.526C16.4699 4.1163 12.8951 0.541504 8.4854 0.541504C4.2541 0.541504 0.791557 3.8334 0.518097 7.9955C0.519267 7.9975 0.520437 7.9995 0.521607 8.0014L0.521677 8.0003L4.8121 9.7686C4.9294 9.6892 5.0547 9.6223 5.1859 9.569C5.4873 9.445 5.8047 9.3893 6.1211 9.4038L8.0748 6.5656L8.074 6.5261H8.0715C8.0715 4.8509 9.4321 3.4885 11.1044 3.4885C12.7799 3.492 14.1373 4.8509 14.1373 6.5261C14.1373 8.2014 12.7774 9.5652 11.1044 9.5652L11.0358 9.564L8.2429 11.5614C8.251 11.8741 8.1928 12.1849 8.0723 12.4736C7.8463 13.0155 7.4144 13.4455 6.8716 13.6692C6.3288 13.8929 5.7193 13.8921 5.1771 13.6668C4.488 13.3798 4.0189 12.783 3.86918 12.1023L0.846727 10.8551ZM5.371 13.1992C6.2411 13.5617 7.2421 13.1508 7.6049 12.2775H7.6029C7.7781 11.8568 7.7791 11.3909 7.6054 10.9685C7.4318 10.5461 7.1074 10.2157 6.6832 10.0403C6.2645 9.8664 5.8169 9.8714 5.4232 10.0211L6.4462 10.444C6.7543 10.5728 6.9987 10.8185 7.1257 11.1274C7.2527 11.4362 7.252 11.7828 7.1236 12.0911C7.0602 12.2436 6.9674 12.3822 6.8504 12.4989C6.7334 12.6156 6.5946 12.708 6.4419 12.771C6.2892 12.834 6.1255 12.8663 5.9603 12.8661C5.7951 12.8658 5.6316 12.833 5.4791 12.7695L4.4917 12.3603C4.672 12.7383 4.9849 13.0369 5.371 13.1992ZM9.6786 7.9562C10.0574 8.3356 10.571 8.5495 11.1071 8.5509C11.6433 8.5496 12.1571 8.3358 12.5359 7.9564C12.9148 7.5769 13.1278 7.0628 13.1282 6.5266C13.1276 5.9905 12.9146 5.4765 12.5358 5.0972C12.1569 4.7179 11.6432 4.5041 11.1071 4.5028C10.5711 4.5043 10.0575 4.7181 9.6788 5.0974C9.3001 5.4767 9.0871 5.9906 9.0866 6.5266C9.087 7.0627 9.2999 7.5768 9.6786 7.9562ZM10.0368 5.449C9.7523 5.7341 9.5927 6.1206 9.5931 6.5234C9.5929 6.9261 9.7523 7.3125 10.0368 7.5976C10.3213 7.8826 10.7074 8.0431 11.1101 8.0437C11.513 8.0433 11.8992 7.8829 12.1839 7.5978C12.4686 7.3127 12.6284 6.9263 12.6282 6.5234C12.6282 5.6838 11.9473 5.0026 11.1101 5.0026C10.7073 5.0032 10.3213 5.1638 10.0368 5.449Z" fill="#B3BEC1"/>
</svg>
