<svg width="17" height="14" viewBox="0 0 17 14" fill="none" xmlns="http://www.w3.org/2000/svg">
<path d="M0.702502 6.53687L14.7325 0.0906183C15.2638 -0.153132 15.8844 0.0968681 16.1188 0.648743C16.2025 0.844368 16.2281 1.06124 16.1938 1.27249L14.3106 12.9075C14.195 13.6225 13.5438 14.1044 12.8569 13.9844C12.6606 13.95 12.475 13.8681 12.3156 13.745L7.57063 10.0894C7.10375 9.72999 7.00563 9.04562 7.35125 8.55999C7.39063 8.50437 7.43563 8.45249 7.485 8.40499L12.2425 3.86499C12.2856 3.82374 12.2881 3.75499 12.2488 3.70999C12.2144 3.67187 12.1594 3.66374 12.1156 3.69124L4.89625 8.34124C4.63375 8.50937 4.31375 8.55062 4.02 8.45249L0.742502 7.35312C0.521252 7.27874 0.400002 7.03187 0.471252 6.80249C0.508127 6.68437 0.591877 6.58687 0.701252 6.53687H0.702502Z" fill="#B3BEC1"/>
</svg>
