<svg width="21" height="20" viewBox="0 0 21 20" fill="none" xmlns="http://www.w3.org/2000/svg">
<path d="M18.1106 9.17563L19.0925 10.125C19.2275 10.2538 19.2275 10.4656 19.0925 10.5944L14.67 14.8813C14.535 15.01 14.3162 15.01 14.1862 14.8813L11.0475 11.8375C11.0156 11.8069 10.9594 11.8069 10.9275 11.8375L7.78875 14.8813C7.65375 15.01 7.435 15.01 7.305 14.8813L2.86687 10.5944C2.73187 10.4656 2.73187 10.2538 2.86687 10.125L3.84875 9.17563C3.98375 9.04688 4.2025 9.04688 4.3325 9.17563L7.47125 12.2194C7.50312 12.25 7.56 12.25 7.59125 12.2194L10.73 9.17563C10.865 9.04688 11.0837 9.04688 11.2137 9.17563L14.3531 12.2194C14.3837 12.25 14.4412 12.25 14.4725 12.2194L17.6119 9.17563C17.7575 9.04688 17.9756 9.04688 18.1106 9.17563ZM6.13187 6.96813C8.80812 4.37313 13.1531 4.37313 15.8294 6.96813L16.1519 7.28313C16.2862 7.41188 16.2862 7.62376 16.1519 7.75251L15.0494 8.82001C14.9819 8.88688 14.8731 8.88688 14.8056 8.82001L14.3637 8.39188C12.4925 6.58126 9.46812 6.58126 7.59687 8.39188L7.12437 8.85126C7.05687 8.91813 6.9475 8.91813 6.87937 8.85126L5.7775 7.78376C5.6425 7.65501 5.6425 7.44313 5.7775 7.31438L6.13125 6.96876L6.13187 6.96813Z" fill="#B3BEC1"/>
</svg>
